<?xml version="1.0" encoding="UTF-8"?>
<svg xmlns="http://www.w3.org/2000/svg" width="512" height="512" viewBox="0 0 512 512">
  <defs>
    <linearGradient id="g" x1="0" y1="0" x2="1" y2="1">
      <stop offset="0" stop-color="#54cf17"/>
      <stop offset="1" stop-color="#2ea80b"/>
    </linearGradient>
    <filter id="shadow" x="-20%" y="-20%" width="140%" height="140%">
      <feDropShadow dx="0" dy="10" stdDeviation="12" flood-color="#000000" flood-opacity="0.22"/>
    </filter>
  </defs>

  <rect x="32" y="32" width="448" height="448" rx="112" fill="url(#g)"/>

  <g filter="url(#shadow)">
    <path
      d="M176 144h160c0 66-22 118-80 136v68h56a16 16 0 0 1 0 32H200a16 16 0 0 1 0-32h56v-68c-58-18-80-70-80-136z"
      fill="#ffffff"
      opacity="0.95"
    />
    <path
      d="M192 176h128c-4 42-22 74-64 86-42-12-60-44-64-86z"
      fill="#131811"
      opacity="0.18"
    />
  </g>

  <text
    x="256"
    y="465"
    text-anchor="middle"
    font-family="Manrope, Arial, sans-serif"
    font-size="96"
    font-weight="800"
    fill="#ffffff"
    opacity="0.9"
  >W</text>
</svg>

